<svg width="25" height="25" viewBox="0 0 160 160" fill="none" xmlns="http://www.w3.org/2000/svg">
<path d="M85.7063 33.7426L90.7362 49.2229C92.8782 55.8153 99.0215 60.2786 105.953 60.2786H122.23C128.042 60.2786 130.459 67.7163 125.757 71.1327L112.588 80.7001C106.981 84.7744 104.634 91.9963 106.776 98.5886L111.806 114.069C113.602 119.597 107.275 124.194 102.573 120.777L89.4046 111.21C83.7968 107.135 76.2032 107.135 70.5954 111.21L57.4271 120.777C52.7248 124.193 46.398 119.597 48.1941 114.069L53.2239 98.5886C55.3659 91.9962 53.0194 84.7744 47.4116 80.7001L34.2433 71.1327C29.541 67.7163 31.9577 60.2786 37.77 60.2786H54.0469C60.9785 60.2786 67.1218 55.8153 69.2638 49.2229L74.2937 33.7426C76.0898 28.2148 83.9102 28.2148 85.7063 33.7426Z" fill="#333" fill-opacity="0" stroke="#333" stroke-opacity="0.5" stroke-width="10"/>
</svg>
