<svg width="1200" height="1200" viewBox="0 0 1200 1200" fill="none" xmlns="http://www.w3.org/2000/svg">
<rect width="1200" height="1200" fill="#E5E5E5"/>
<path class="sand" d="M441.5 565.73C462 507.23 288 434.73 288 538.23C288 641.73 288 720.73 338 674.23C388 627.73 421 624.23 441.5 565.73Z" fill="#D9D7A2"/>
<path class="sand" d="M520.149 850.5C578.649 871 651.149 697 547.649 697C444.149 697 365.149 697 411.649 747C458.149 797 461.649 830 520.149 850.5Z" fill="#D9D7A2"/>
<path class="sand" d="M861.149 763.5C919.649 784 992.149 610 888.649 610C785.149 610 706.149 610 752.649 660C799.149 710 802.649 743 861.149 763.5Z" fill="#D9D7A2"/>
<path class="water" d="M856.557 539.722C864.56 456.582 853.886 334.573 788.708 372.203C723.53 409.834 621.039 489.792 706.625 490.031C792.211 490.27 848.555 622.861 856.557 539.722Z" fill="#8DBCD6" fill-opacity="0.5"/>
<path class="water" d="M676.684 929.495C759.062 915.707 874.151 873.818 820.934 820.601C767.716 767.383 663.956 689.079 685.876 771.81C707.797 854.542 594.306 943.284 676.684 929.495Z" fill="#8DBCD6" fill-opacity="0.5"/>
<path class="water" d="M599.633 501.508C607.635 418.368 596.962 296.359 531.784 333.989C466.606 371.62 364.114 451.578 449.7 451.817C535.286 452.056 591.631 584.648 599.633 501.508Z" fill="#8DBCD6" fill-opacity="0.5"/>
<rect class="mat" x="583" y="181" width="70" height="70" fill="#C4C4C4"/>
<rect class="ball" x="606" y="204" width="24" height="24" fill="#C4C4C4"/>
<rect class="rock" x="861" y="575" width="80" height="69" fill="#C4C4C4"/>
<rect class="rock" x="589" y="628" width="80" height="69" fill="#C4C4C4"/>
<rect class="rock" x="730" y="732" width="80" height="69" fill="#C4C4C4"/>
<rect class="rock" x="574" y="830" width="80" height="69" fill="#C4C4C4"/>
<rect class="rock" x="678" y="507" width="80" height="69" fill="#C4C4C4"/>
<rect class="rock" x="443" y="494" width="80" height="69" fill="#C4C4C4"/>
<rect class="rock" x="336" y="628" width="80" height="69" fill="#C4C4C4"/>
<rect class="rock" x="574" y="381" width="80" height="69" fill="#C4C4C4"/>
<rect class="course" x="518" y="116" width="200" height="199" fill="#C4C4C4"/>
<rect class="course" x="261" y="315" width="715" height="625" fill="#C4C4C4"/>
<rect class="course" x="519" y="940" width="199" height="200" fill="#C4C4C4"/>
<rect class="wedge-tl" x="261" y="316" width="150" height="150" fill="#C4C4C4"/>
<rect class="wedge" x="826" y="316" width="150" height="150" fill="#C4C4C4"/>
<rect class="wedge-br" x="826" y="790" width="150" height="150" fill="#C4C4C4"/>
<rect class="hole" x="598" y="1020" width="40" height="40" fill="#C4C4C4"/>
<rect class="wedge-bl" x="261" y="790" width="150" height="150" fill="#C4C4C4"/>
<rect class="background" width="1200" height="1200" fill="#C4C4C4"/>
<rect class="wall" x="211" y="316" width="50" height="624" fill="#C4C4C4"/>
<rect class="wall" x="976" y="315" width="50" height="624" fill="#C4C4C4"/>
<rect class="wall" x="518" y="66" width="200" height="50" fill="#C4C4C4"/>
<rect class="wall" x="518" y="1140" width="200" height="50" fill="#C4C4C4"/>
<rect class="wall" x="261" y="940" width="257" height="50" fill="#C4C4C4"/>
<rect class="wall" x="719" y="940" width="257" height="50" fill="#C4C4C4"/>
<rect class="wall" x="719" y="265" width="257" height="50" fill="#C4C4C4"/>
<rect class="wall" x="261" y="265" width="257" height="50" fill="#C4C4C4"/>
<rect class="wall" x="468" y="116" width="50" height="149" fill="#C4C4C4"/>
<rect class="wall" x="718" y="116" width="50" height="149" fill="#C4C4C4"/>
<rect class="wall" x="468" y="991" width="50" height="149" fill="#C4C4C4"/>
<rect class="wall" x="718" y="991" width="50" height="149" fill="#C4C4C4"/>
</svg>
