<svg width="1200" height="1200" viewBox="0 0 1200 1200" fill="none" xmlns="http://www.w3.org/2000/svg">
<rect width="1200" height="1200" fill="#E5E5E5"/>
<path class="sand" d="M584 857.5C548.5 847 532 858 532 858V957H816V858C816 858 798.5 842 761 857.5C723.5 873 702.5 868.5 668.5 857.5C634.5 846.5 619.5 868 584 857.5Z" fill="#D9D7A2"/>
<path class="water" d="M816 242H532V403C579.5 444.5 612.5 390.5 663.5 394.5C714.5 398.5 796.118 378.341 816 314V242Z" fill="#8DBCD6" fill-opacity="0.5"/>
<rect class="rock" x="474" y="417" width="80" height="69" fill="#C4C4C4"/>
<rect class="rock" x="612" y="666" width="80" height="69" fill="#C4C4C4"/>
<rect class="mat" x="294" y="556" width="70" height="70" fill="#C4C4C4"/>
<rect class="ball" x="317" y="579" width="24" height="24" fill="#C4C4C4"/>
<rect class="rock" x="612" y="482" width="80" height="69" fill="#C4C4C4"/>
<rect class="rock" x="612" y="830" width="80" height="69" fill="#C4C4C4"/>
<rect class="hole" x="900" y="571" width="40" height="40" fill="#C4C4C4"/>
<rect class="rock" x="754" y="557" width="80" height="69" fill="#C4C4C4"/>
<rect class="rock" x="674" y="337" width="80" height="69" fill="#C4C4C4"/>
<rect class="course" x="166" y="403" width="868" height="376" fill="#C4C4C4"/>
<rect class="course" x="532" y="242" width="284" height="161" fill="#C4C4C4"/>
<rect class="course" x="532" y="779" width="284" height="178" fill="#C4C4C4"/>
<rect class="background" width="1200" height="1200" fill="#C4C4C4"/>
<rect class="wall" x="532" y="192" width="284" height="50" fill="#C4C4C4"/>
<rect class="wall" x="532" y="957" width="284" height="50" fill="#C4C4C4"/>
<rect class="wall" x="166" y="779" width="366" height="50" fill="#C4C4C4"/>
<rect class="wall" x="166" y="356" width="366" height="50" fill="#C4C4C4"/>
<rect class="wall" x="116" y="406" width="50" height="373" fill="#C4C4C4"/>
<rect class="wall" x="1034" y="406" width="50" height="373" fill="#C4C4C4"/>
<rect class="wall" x="816" y="242" width="50" height="164" fill="#C4C4C4"/>
<rect class="wall" x="482" y="242" width="50" height="164" fill="#C4C4C4"/>
<rect class="wall" x="482" y="779" width="50" height="178" fill="#C4C4C4"/>
<rect class="wall" x="816" y="780" width="50" height="178" fill="#C4C4C4"/>
<rect class="wall" x="816" y="780" width="218" height="50" fill="#C4C4C4"/>
<rect class="wall" x="816" y="356" width="218" height="50" fill="#C4C4C4"/>
</svg>
