<svg width="1200" height="1200" viewBox="0 0 1200 1200" fill="none" xmlns="http://www.w3.org/2000/svg">
<rect width="1200" height="1200" fill="#E5E5E5"/>
<rect class="mat" x="161" y="552" width="70" height="70" fill="#C4C4C4"/>
<rect class="hole" x="1041" y="443" width="40" height="40" fill="#C4C4C4"/>
<rect class="ball" x="184" y="575" width="24" height="24" fill="#C4C4C4"/>
<rect class="course" x="621" y="261" width="527" height="172" fill="#C4C4C4"/>
<rect class="course" x="94" y="501" width="1054" height="172" fill="#C4C4C4"/>
<rect class="course" x="243" y="827" width="550" height="172" fill="#C4C4C4"/>
<rect class="course" x="621" y="432" width="172" height="69" fill="#C4C4C4"/>
<rect class="course" x="976" y="433" width="172" height="68" fill="#C4C4C4"/>
<rect class="course" x="243" y="672" width="172" height="156" fill="#C4C4C4"/>
<rect class="course" x="621" y="673" width="172" height="154" fill="#C4C4C4"/>
<rect class="background" width="1200" height="1200" fill="#C4C4C4"/>
<rect class="wall" x="571" y="261" width="50" height="240" fill="#C4C4C4"/>
<rect class="wall" x="621" y="210" width="527" height="50" fill="#C4C4C4"/>
<rect class="wall" x="795" y="433" width="181" height="50" fill="#C4C4C4"/>
<rect class="wall" x="795" y="450" width="181" height="50" fill="#C4C4C4"/>
<rect class="wall" x="94" y="452" width="477" height="50" fill="#C4C4C4"/>
<rect class="wall" x="94" y="673" width="102" height="50" fill="#C4C4C4"/>
<rect class="wall" x="466" y="673" width="105" height="50" fill="#C4C4C4"/>
<rect class="wall" x="466" y="777" width="105" height="50" fill="#C4C4C4"/>
<rect class="wall" x="246" y="999" width="547" height="50" fill="#C4C4C4"/>
<rect class="wall" x="844" y="673" width="304" height="50" fill="#C4C4C4"/>
<rect class="wall" x="193" y="673" width="50" height="326" fill="#C4C4C4"/>
<rect class="wall" x="571" y="673" width="50" height="155" fill="#C4C4C4"/>
<rect class="wall" x="416" y="672" width="50" height="155" fill="#C4C4C4"/>
<rect class="wall" x="44" y="501" width="50" height="172" fill="#C4C4C4"/>
<rect class="wall" x="1148" y="261" width="50" height="412" fill="#C4C4C4"/>
<rect class="wall" x="795" y="673" width="50" height="326" fill="#C4C4C4"/>
<path class="sand" d="M340 787C310.5 808 243 804 243 804V999H462C462 999 523.5 971.5 475 935C426.5 898.5 415 827 415 827V787C415 787 369.5 766 340 787Z" fill="#D9D7A2"/>
<path class="sand" d="M605 999C605 999 638 912 605 827H621V758C621 758 647.5 716.5 668 758C688.5 799.5 793 785 793 785V999H605Z" fill="#D9D7A2"/>
<path class="sand" d="M859 261C859 261 916.5 360.5 805 373C693.5 385.5 718.957 499.236 621 445V261H859Z" fill="#D9D7A2"/>
<path class="sand" d="M1148 261H935C935 261 974.5 321.5 1054 326C1133.5 330.5 1148 394 1148 394V261Z" fill="#D9D7A2"/>
<path class="water" d="M379.5 590.5C351 549.5 409.5 501 409.5 501H510.5C510.5 501 497 558.5 485.5 597C474 635.5 510 673 510 673H415C415 673 408 631.5 379.5 590.5Z" fill="#8DBCD6" fill-opacity="0.5"/>
<path class="water" d="M655.222 668.484C627.722 656.984 613 607.53 613 560.03C613 512.53 718 485.53 718 513.03C718 540.53 759 601.53 730 636.03C701 670.53 716.746 723.87 682.722 707.484C665.932 699.397 682.722 679.984 655.222 668.484Z" fill="#8DBCD6" fill-opacity="0.5"/>
<path class="water" d="M833 581C834.167 549.099 854 502 854 502H893C893 502 889.231 508.254 910 536C922.922 553.263 912.459 613.662 922 633C930.899 651.036 949.5 673.5 949.5 673.5H854C854 673.5 831.646 618.018 833 581Z" fill="#8DBCD6" fill-opacity="0.5"/>
<path class="water" d="M1148 673H1034C1034 673 1030.59 607.872 1058 578C1085.29 548.257 1148 548 1148 548V673Z" fill="#8DBCD6" fill-opacity="0.5"/>
</svg>
