<svg width="1200" height="1200" viewBox="0 0 1200 1200" fill="none" xmlns="http://www.w3.org/2000/svg">
<rect width="1200" height="1200" fill="#E5E5E5"/>
<path class="water" d="M1064.58 522.645C1050.79 376.65 878.848 330.919 827.226 377.507C782.037 418.29 870.725 458.783 827.226 634.904C783.727 811.025 897.535 801.464 940.526 755.408C1053.01 634.904 1078.38 668.639 1064.58 522.645Z" fill="#8DBCD6" fill-opacity="0.5"/>
<path class="sand" d="M350.361 678.142C257.334 580.968 203.776 626.798 154.616 626.799C105.456 626.799 85.6208 838.173 154.616 824.291C223.611 810.409 199.196 882.084 245.356 854.709C283.276 832.222 443.388 775.315 350.361 678.142Z" fill="#D9D7A2"/>
<rect class="rock" x="598" y="784" width="80" height="69" fill="#C4C4C4"/>
<rect class="hole" x="1005" y="342" width="40" height="40" fill="#C4C4C4"/>
<rect class="rock" x="494" y="749" width="80" height="69" fill="#C4C4C4"/>
<rect class="ball" x="202" y="723" width="24" height="24" fill="#C4C4C4"/>
<rect class="mat" x="179" y="700" width="70" height="70" fill="#C4C4C4"/>
<rect class="wedge-br" x="971" y="727" width="150" height="150" fill="#C4C4C4"/>
<rect class="course" x="78" y="593" width="1043" height="284" fill="#C4C4C4"/>
<rect class="course" x="793" y="267" width="328" height="326" fill="#C4C4C4"/>
<rect class="background" width="1200" height="1200" fill="#C4C4C4"/>
<rect class="wall" x="793" y="217" width="328" height="50" fill="#C4C4C4"/>
<rect class="wall" x="743" y="267" width="50" height="276" fill="#C4C4C4"/>
<rect class="wall" x="1121" y="267" width="50" height="610" fill="#C4C4C4"/>
<rect class="wall" x="29" y="593" width="50" height="284" fill="#C4C4C4"/>
<rect class="wall" x="78" y="877" width="1043" height="50" fill="#C4C4C4"/>
<rect class="wall" x="79" y="543" width="714" height="50" fill="#C4C4C4"/>
</svg>
